# xmcd
#
# Track frame offsets:
#	150
#	16551
#	25073
#	38379
#	54646
#	67827
#	77584
#	87130
#	98319
#	110191
#	119852
#	129091
#	137520
#	146606
#	162198
#	173234
#	185019
#	195223
#	207512
#	220973
#	231670
#	242701
#	252660
#	266267
#	280671
#
# Disc length: 3943 seconds
#
# Revision: 0
# Processed by: cddbd v1.5.2PL0 Copyright (c) Steve Scherf et al.
# Submitted via: audiograbber 1.83.01
#
DISCID=550f6519
DTITLE=Boxcar Willie - Just Train Songs Volume 1
DYEAR=1900
DGENRE=
TTITLE0=Train Medley
TTITLE1=Lonesome Hobo
TTITLE2=From a Rolls To The Rails
TTITLE3=From A Boxcar Door
TTITLE4=I Love The Sound Of A Whistle
TTITLE5=Golden Rocket
TTITLE6=I'm Movin' On
TTITLE7=Wreck Of The Old 97
TTITLE8=Pan American
TTITLE9=Waitin' For A Train
TTITLE10=Hobo Bill's Last Ride
TTITLE11=Daddy Was A Railroad Man
TTITLE12=Hank And The Hobo
TTITLE13=Wabash Cannonball
TTITLE14=Freight Train Blues
TTITLE15=The Old Iron Train
TTITLE16=Bummin' Around
TTITLE17=Lonesome Joe
TTITLE18=Ramblin' Man
TTITLE19=Rock Island Line
TTITLE20=Last Train To Heaven
TTITLE21=King Of The Road
TTITLE22=Lonesome Whistle
TTITLE23=Walkin' Holes In My Shoes
TTITLE24=Boxcar Blues
EXTD=
EXTT0=
EXTT1=
EXTT2=
EXTT3=
EXTT4=
EXTT5=
EXTT6=
EXTT7=
EXTT8=
EXTT9=
EXTT10=
EXTT11=
EXTT12=
EXTT13=
EXTT14=
EXTT15=
EXTT16=
EXTT17=
EXTT18=
EXTT19=
EXTT20=
EXTT21=
EXTT22=
EXTT23=
EXTT24=
PLAYORDER=
